<svg width="300" height="450" viewBox="0 0 300 450" fill="none" xmlns="http://www.w3.org/2000/svg">
<path d="M150 225C150 184.001 183.236 150.764 224.236 150.764C265.235 150.764 298.473 184.001 298.473 225C298.473 266 265.235 299.237 224.236 299.237C183.236 299.237 150 266 150 225Z" fill="#1ABCFE"/>
<path d="M1.52734 373.473C1.52734 332.474 34.7641 299.236 75.7638 299.236H150V373.473C150 414.473 116.764 447.709 75.7638 447.709C34.7641 447.709 1.52734 414.473 1.52734 373.473Z" fill="#0ACF83"/>
<path d="M150 2.29102V150.763H224.236C265.236 150.763 298.473 117.527 298.473 76.5274C298.473 35.5278 265.236 2.29102 224.236 2.29102H150Z" fill="#FF7262"/>
<path d="M1.52734 76.5275C1.52734 117.527 34.7641 150.764 75.7638 150.764H150V2.29102H75.7638C34.7641 2.29102 1.52734 35.5278 1.52734 76.5275Z" fill="#F24E1E"/>
<path d="M1.52734 225C1.52734 266 34.7641 299.237 75.7638 299.237H150V150.764H75.7638C34.7641 150.764 1.52734 184.001 1.52734 225Z" fill="#A259FF"/>
</svg>
